<svg xmlns="http://www.w3.org/2000/svg" xmlns:xlink="http://www.w3.org/1999/xlink" width="2000" zoomAndPan="magnify" viewBox="0 0 1500 1499.999933" height="2000" preserveAspectRatio="xMidYMid meet" version="1.0"><defs><g/><clipPath id="ad8fb98a9f"><rect x="0" width="749" y="0" height="186"/></clipPath><clipPath id="1205a63e9d"><path d="M 566.078125 417.875 L 933.578125 417.875 L 933.578125 756.125 L 566.078125 756.125 Z M 566.078125 417.875 " clip-rule="nonzero"/></clipPath></defs><g transform="matrix(1, 0, 0, 1, 377, 780)"><g clip-path="url(#ad8fb98a9f)"><g fill="#000000" fill-opacity="1"><g transform="translate(2.412554, 136.692462)"><g><path d="M 66.75 -16.59375 L 31.703125 -16.59375 L 26.09375 0 L 2.140625 0 L 36.125 -93.921875 L 62.609375 -93.921875 L 96.59375 0 L 72.375 0 Z M 60.875 -34.25 L 49.234375 -68.625 L 37.71875 -34.25 Z M 60.875 -34.25 "/></g></g></g><g fill="#000000" fill-opacity="1"><g transform="translate(103.644474, 136.692462)"><g><path d="M 42.28125 0.9375 C 35.40625 0.9375 29.25 -0.175781 23.8125 -2.40625 C 18.375 -4.632812 14.023438 -7.929688 10.765625 -12.296875 C 7.515625 -16.671875 5.800781 -21.9375 5.625 -28.09375 L 29.96875 -28.09375 C 30.320312 -24.613281 31.523438 -21.957031 33.578125 -20.125 C 35.628906 -18.300781 38.304688 -17.390625 41.609375 -17.390625 C 44.992188 -17.390625 47.664062 -18.171875 49.625 -19.734375 C 51.59375 -21.296875 52.578125 -23.457031 52.578125 -26.21875 C 52.578125 -28.539062 51.796875 -30.457031 50.234375 -31.96875 C 48.671875 -33.488281 46.753906 -34.738281 44.484375 -35.71875 C 42.210938 -36.695312 38.976562 -37.8125 34.78125 -39.0625 C 28.71875 -40.9375 23.769531 -42.8125 19.9375 -44.6875 C 16.101562 -46.5625 12.800781 -49.328125 10.03125 -52.984375 C 7.269531 -56.640625 5.890625 -61.410156 5.890625 -67.296875 C 5.890625 -76.035156 9.054688 -82.878906 15.390625 -87.828125 C 21.722656 -92.773438 29.972656 -95.25 40.140625 -95.25 C 50.484375 -95.25 58.820312 -92.773438 65.15625 -87.828125 C 71.488281 -82.878906 74.875 -75.988281 75.3125 -67.15625 L 50.5625 -67.15625 C 50.382812 -70.1875 49.269531 -72.570312 47.21875 -74.3125 C 45.164062 -76.050781 42.535156 -76.921875 39.328125 -76.921875 C 36.566406 -76.921875 34.335938 -76.1875 32.640625 -74.71875 C 30.941406 -73.25 30.09375 -71.128906 30.09375 -68.359375 C 30.09375 -65.328125 31.519531 -62.960938 34.375 -61.265625 C 37.226562 -59.578125 41.691406 -57.75 47.765625 -55.78125 C 53.828125 -53.726562 58.753906 -51.765625 62.546875 -49.890625 C 66.335938 -48.023438 69.613281 -45.304688 72.375 -41.734375 C 75.132812 -38.171875 76.515625 -33.578125 76.515625 -27.953125 C 76.515625 -22.609375 75.15625 -17.75 72.4375 -13.375 C 69.71875 -9.007812 65.769531 -5.53125 60.59375 -2.9375 C 55.425781 -0.351562 49.320312 0.9375 42.28125 0.9375 Z M 42.28125 0.9375 "/></g></g></g><g fill="#000000" fill-opacity="1"><g transform="translate(188.561763, 136.692462)"><g><path d="M 31.171875 -93.921875 L 31.171875 0 L 8.296875 0 L 8.296875 -93.921875 Z M 31.171875 -93.921875 "/></g></g></g><g fill="#000000" fill-opacity="1"><g transform="translate(230.686676, 136.692462)"><g><path d="M 69.4375 -93.921875 L 69.4375 -75.59375 L 31.171875 -75.59375 L 31.171875 -55.78125 L 59.796875 -55.78125 L 59.796875 -38 L 31.171875 -38 L 31.171875 0 L 8.296875 0 L 8.296875 -93.921875 Z M 69.4375 -93.921875 "/></g></g></g><g fill="#000000" fill-opacity="1"><g transform="translate(306.510591, 136.692462)"><g/></g></g><g fill="#000000" fill-opacity="1"><g transform="translate(337.536277, 136.692462)"><g><path d="M 31.171875 -93.921875 L 31.171875 0 L 8.296875 0 L 8.296875 -93.921875 Z M 31.171875 -93.921875 "/></g></g></g><g fill="#000000" fill-opacity="1"><g transform="translate(379.66119, 136.692462)"><g><path d="M 75.1875 16.046875 L 63.140625 -0.140625 C 59.578125 0.578125 56.097656 0.9375 52.703125 0.9375 C 43.878906 0.9375 35.785156 -1.113281 28.421875 -5.21875 C 21.066406 -9.320312 15.226562 -15.050781 10.90625 -22.40625 C 6.582031 -29.757812 4.421875 -38.03125 4.421875 -47.21875 C 4.421875 -56.40625 6.582031 -64.65625 10.90625 -71.96875 C 15.226562 -79.28125 21.066406 -84.988281 28.421875 -89.09375 C 35.785156 -93.195312 43.878906 -95.25 52.703125 -95.25 C 61.535156 -95.25 69.628906 -93.195312 76.984375 -89.09375 C 84.347656 -84.988281 90.144531 -79.28125 94.375 -71.96875 C 98.613281 -64.65625 100.734375 -56.40625 100.734375 -47.21875 C 100.734375 -39.195312 99.101562 -31.863281 95.84375 -25.21875 C 92.59375 -18.570312 88.070312 -13.066406 82.28125 -8.703125 L 102.875 16.046875 Z M 27.828125 -47.21875 C 27.828125 -38.925781 30.078125 -32.304688 34.578125 -27.359375 C 39.085938 -22.410156 45.128906 -19.9375 52.703125 -19.9375 C 60.203125 -19.9375 66.203125 -22.429688 70.703125 -27.421875 C 75.203125 -32.421875 77.453125 -39.019531 77.453125 -47.21875 C 77.453125 -55.519531 75.203125 -62.144531 70.703125 -67.09375 C 66.203125 -72.039062 60.203125 -74.515625 52.703125 -74.515625 C 45.128906 -74.515625 39.085938 -72.0625 34.578125 -67.15625 C 30.078125 -62.25 27.828125 -55.601562 27.828125 -47.21875 Z M 27.828125 -47.21875 "/></g></g></g><g fill="#000000" fill-opacity="1"><g transform="translate(487.713152, 136.692462)"><g><path d="M 65.15625 -48.15625 C 70.59375 -47 74.960938 -44.300781 78.265625 -40.0625 C 81.566406 -35.832031 83.21875 -30.992188 83.21875 -25.546875 C 83.21875 -17.703125 80.472656 -11.484375 74.984375 -6.890625 C 69.492188 -2.296875 61.847656 0 52.046875 0 L 8.296875 0 L 8.296875 -93.921875 L 50.5625 -93.921875 C 60.113281 -93.921875 67.585938 -91.734375 72.984375 -87.359375 C 78.378906 -82.984375 81.078125 -77.050781 81.078125 -69.5625 C 81.078125 -64.03125 79.625 -59.4375 76.71875 -55.78125 C 73.820312 -52.125 69.96875 -49.582031 65.15625 -48.15625 Z M 31.171875 -55.921875 L 46.15625 -55.921875 C 49.894531 -55.921875 52.769531 -56.742188 54.78125 -58.390625 C 56.789062 -60.046875 57.796875 -62.476562 57.796875 -65.6875 C 57.796875 -68.894531 56.789062 -71.347656 54.78125 -73.046875 C 52.769531 -74.742188 49.894531 -75.59375 46.15625 -75.59375 L 31.171875 -75.59375 Z M 48.03125 -18.46875 C 51.863281 -18.46875 54.828125 -19.332031 56.921875 -21.0625 C 59.015625 -22.800781 60.0625 -25.320312 60.0625 -28.625 C 60.0625 -31.925781 58.96875 -34.515625 56.78125 -36.390625 C 54.601562 -38.265625 51.597656 -39.203125 47.765625 -39.203125 L 31.171875 -39.203125 L 31.171875 -18.46875 Z M 48.03125 -18.46875 "/></g></g></g><g fill="#000000" fill-opacity="1"><g transform="translate(578.514426, 136.692462)"><g><path d="M 66.75 -16.59375 L 31.703125 -16.59375 L 26.09375 0 L 2.140625 0 L 36.125 -93.921875 L 62.609375 -93.921875 L 96.59375 0 L 72.375 0 Z M 60.875 -34.25 L 49.234375 -68.625 L 37.71875 -34.25 Z M 60.875 -34.25 "/></g></g></g><g fill="#000000" fill-opacity="1"><g transform="translate(679.746346, 136.692462)"><g><path d="M 31.171875 -17.65625 L 61.140625 -17.65625 L 61.140625 0 L 8.296875 0 L 8.296875 -93.921875 L 31.171875 -93.921875 Z M 31.171875 -17.65625 "/></g></g></g></g></g><g clip-path="url(#1205a63e9d)"><path fill="#000000" d="M 867.425781 756.082031 L 933.578125 756.082031 L 873.828125 625.042969 C 910.605469 568.234375 926.234375 501.332031 917.949219 433.519531 C 913.367188 491.253906 893.15625 545.316406 859.140625 591.121094 C 809.558594 656.183594 736.066406 699.257812 651.527344 707.484375 C 677.257812 647.019531 714.914062 561.828125 748.902344 481.175781 C 772.78125 536.148438 786.589844 568.234375 797.570312 592.0625 C 771.902344 620.457031 742.46875 645.199219 709.390625 665.351562 C 744.320312 652.542969 776.484375 633.269531 804.035156 608.542969 C 819.664062 594.792969 833.410156 580.132812 845.394531 563.648438 L 846.273438 562.707031 C 874.769531 525.160156 894.976562 482.085938 905.082031 435.371094 C 887.632812 476.59375 861.902344 516.902344 838.054688 546.226562 L 780.125 417.949219 L 718.585938 417.949219 L 566.078125 756.082031 L 631.316406 756.082031 C 706.632812 756.082031 779.246094 726.761719 832.53125 675.460938 C 840.753906 694.675781 851.800781 719.414062 867.425781 756.082031 Z M 867.425781 756.082031 " fill-opacity="1" fill-rule="evenodd"/></g></svg>